<?xml version="1.0" encoding="UTF-8"?><svg id="Warstwa_1" xmlns="http://www.w3.org/2000/svg" xmlns:xlink="http://www.w3.org/1999/xlink" viewBox="0 0 1028 1028"><defs><style>.cls-1{fill:url(#linear-gradient);}.cls-2{fill:#ed3131;}.cls-3{fill:#e7102b;}.cls-4{fill:#ec1c2e;}.cls-5{fill:#fff;}.cls-6{fill:#ed1c24;}.cls-7{fill:#e7262b;}.cls-8{fill:#ff2429;}.cls-9{fill:#90181b;}.cls-10{fill:#c82027;}.cls-11{fill:#dc1f26;}.cls-12{fill:#da1f26;}.cls-13{fill:url(#Gradient_bez_nazwy_5);}</style><linearGradient id="linear-gradient" x1="201.04" y1="231.31" x2="360.3" y2="511.07" gradientUnits="userSpaceOnUse"><stop offset="0" stop-color="#ed1c24"/><stop offset="1" stop-color="#4c0000"/></linearGradient><linearGradient id="Gradient_bez_nazwy_5" x1="441.72" y1="469.53" x2="265.96" y2="640.65" gradientUnits="userSpaceOnUse"><stop offset="0" stop-color="#ed1c24"/><stop offset=".33" stop-color="#ea1b23"/><stop offset=".48" stop-color="#e31a21"/><stop offset=".59" stop-color="#d6181e"/><stop offset=".69" stop-color="#c4141a"/><stop offset=".78" stop-color="#ac1015"/><stop offset=".86" stop-color="#8f0b0f"/><stop offset=".93" stop-color="#6d0507"/><stop offset=".98" stop-color="#4c0000"/></linearGradient></defs><g><path class="cls-4" d="m515.27,776.54l11.14,13.32-42.13,42.13-22.4-24.09-55.56-53.87,16.71-16.71,52.3,54.23,11.5,10.78,26.15-26.15,2.3.36Z"/><path class="cls-4" d="m526.41,689.62c9.2.48,18.36,5.29,27.48,14.4,9.85,9.85,15.03,19.71,15.56,29.6.52,9.89-3.61,19.23-12.41,28.03-8.23,8.23-16.95,12.1-26.15,11.62-9.2-.49-18.36-5.29-27.48-14.41-9.84-9.84-15.03-19.71-15.56-29.6-.53-9.88,3.61-19.23,12.41-28.02,8.23-8.23,16.95-12.11,26.15-11.62Zm-20.88,35.89c.85,4.32,4.14,9.34,9.87,15.07,7.43,7.43,13.6,11.83,18.52,13.2,4.92,1.37,9.4.04,13.44-4,3.87-3.87,5.41-7.95,4.6-12.23-.81-4.28-4.12-9.32-9.93-15.13-7.34-7.34-13.52-11.7-18.52-13.07-5-1.37-9.48-.08-13.44,3.87-3.87,3.88-5.39,7.97-4.54,12.29Z"/><path class="cls-4" d="m555.83,665.77l40.67,23.73.85-.85-21.18-41.52-7.75-11.86,14.04-14.04,37.41,75.18-17.31,17.31-71.91-39.95,14.28-15.74,10.9,7.75Z"/><path class="cls-4" d="m662.48,601.49l-32.44,32.93c10.82,9.36,20.98,9.28,30.51-.24,5-5,9.16-11.98,12.47-20.94l2.18-.48,9.56,14.4c-3.88,8.39-8.51,15.3-13.92,20.7-8.88,8.88-18.42,13.26-28.63,13.13-10.21-.12-19.87-4.74-28.99-13.86-9.04-9.04-13.74-18.66-14.1-28.87-.36-10.21,3.65-19.51,12.04-27.9,7.18-7.18,14.69-10.77,22.52-10.78,7.83,0,15.25,3.51,22.27,10.53,1.86,1.86,3.99,4.4,6.42,7.63l.12,3.75Zm-22.4.85c-3.23-3.23-6.4-4.94-9.5-5.14-3.11-.2-6.07,1.11-8.9,3.93-3.15,3.15-4.74,6.8-4.78,10.96-.04,4.16,1.51,8.53,4.66,13.13l19.97-20.94-1.45-1.94Z"/><path class="cls-5" d="m772.64,543.62l-17.19,17.19-48.91-25.66-1.09,1.09,25.54,49.03-17.31,17.31-99.75-56.17,16.1-16.1,10.77,8.35,65.25,37.65,1.09-1.09-28.81-55.2-24.58-13.44,16.71-16.71,13.07,9.44,63.8,35.71,1.09-1.09-34.62-66.1-8.72-12.59,15.25-15.25,52.3,103.62Z"/><path class="cls-5" d="m818.03,445.93l-32.44,32.93c10.82,9.36,20.98,9.28,30.51-.24,5-5,9.16-11.98,12.47-20.94l2.18-.48,9.56,14.4c-3.88,8.39-8.51,15.29-13.92,20.7-8.88,8.88-18.42,13.26-28.63,13.13-10.21-.12-19.87-4.74-28.99-13.86-9.04-9.04-13.74-18.66-14.1-28.87-.36-10.21,3.65-19.51,12.04-27.9,7.18-7.18,14.69-10.77,22.52-10.77,7.83,0,15.25,3.51,22.28,10.53,1.86,1.86,3.99,4.4,6.42,7.63l.12,3.75Zm-22.4.85c-3.23-3.23-6.4-4.94-9.5-5.14-3.11-.2-6.07,1.11-8.9,3.93-3.15,3.15-4.74,6.8-4.78,10.96-.04,4.16,1.51,8.53,4.66,13.13l19.97-20.94-1.45-1.94Z"/><path class="cls-5" d="m854.11,362.52c8.56,1.05,17.11,5.85,25.66,14.41,9.93,9.93,15.11,20.04,15.56,30.33.44,10.29-3.69,19.79-12.41,28.51-4.12,4.12-9.57,7.71-16.34,10.77l-5.45,11.5-3.51.36-22.15-23.85-61.38-59.92,14.77-17.19,36.2,37.16.73-.73c.08-4.44.5-8.37,1.27-11.8.77-3.43,1.96-6.92,3.57-10.47,7.1-7.1,14.93-10.13,23.49-9.08Zm23.36,48.91c-.65-5.16-3.95-10.73-9.93-16.71-5.57-5.57-10.71-8.9-15.43-9.99-4.72-1.09-8.9.18-12.53,3.81-3.31,3.31-5.09,8.47-5.33,15.49l13.56,14.04,13.92,13.44c4.44-1.53,7.99-3.63,10.65-6.29,4.03-4.03,5.73-8.63,5.08-13.8Z"/></g><path class="cls-1" d="m196.38,490.86c32.25,0,61.33-13.38,82.14-34.84l.04.02.23.06,87.28-87.28,84.24-84.25-43.55-43.55c-120.97-120.95-324.89-23.73-324.89,138.35,0-.72.03-1.44.04-2.16.46,62.83,51.5,113.65,114.45,113.65Z"/><rect class="cls-12" x="513.41" y="154.13" width="75.02" height="75.02"/><rect class="cls-2" x="690.04" y="183.82" width="60.25" height="60.25"/><rect class="cls-3" x="811.99" y="179.01" width="44.85" height="44.85"/><rect class="cls-10" x="588.44" y="259.85" width="87.37" height="87.37"/><rect class="cls-9" x="459.97" y="395.6" width="95.26" height="95.26"/><polygon class="cls-9" points="459.97 395.6 459.97 300.36 364.73 395.6 459.97 395.6"/><rect class="cls-11" x="364.72" y="395.6" width="95.26" height="95.26"/><rect class="cls-11" x="459.97" y="490.85" width="95.26" height="95.26"/><rect class="cls-12" x="555.23" y="395.6" width="95.26" height="95.26"/><rect class="cls-12" x="459.97" y="300.34" width="95.26" height="95.26"/><rect class="cls-8" x="762.34" y="276.61" width="60.11" height="60.1"/><rect class="cls-7" x="676.48" y="361.41" width="53.3" height="53.3"/><path class="cls-6" d="m741.81,494.72c1.27-1.27,2.5-2.56,3.73-3.86-1.22,1.3-2.46,2.59-3.73,3.86Z"/><path class="cls-13" d="m555.23,586.56v-.45h-95.26v-95.26h-95.26v-95.24l-82.92,82.92-.72-.17c-24.52,21.04-55.31,32.49-87.97,32.49-10.69,0-21.11-1.26-31.11-3.63l22.81,22.82,214.96,214.96,155.46-158.45Z"/><polygon class="cls-9" points="650.49 490.85 555.23 490.85 555.23 586.11 555.23 586.56 650.49 490.85"/></svg>