<svg xmlns="http://www.w3.org/2000/svg" width="1080" height="1080" viewBox="0 0 1080 1080" version="1.1"><path d="M 334.667 158.667 C 334.300 159.033, 334 275.973, 334 418.534 L 334 677.734 348.156 694.617 C 355.942 703.903, 367.572 717.800, 374 725.500 C 380.428 733.200, 393.444 748.725, 402.925 760 C 426.571 788.121, 511.333 889.269, 544.966 929.500 C 554.162 940.500, 562.394 950.087, 563.261 950.805 C 564.630 951.938, 566.324 950.370, 576.168 938.860 C 582.401 931.573, 589.750 922.830, 592.500 919.431 C 595.250 916.033, 608.059 900.708, 620.964 885.376 C 688.715 804.888, 702 788.940, 702 788.095 C 702 787.685, 699.188 785.060, 695.750 782.262 C 692.313 779.464, 683.650 772.187, 676.500 766.090 C 669.350 759.993, 662.982 755.004, 662.348 755.002 C 661.198 755, 633.982 787.031, 576.246 856.333 C 565.211 869.579, 564.649 870.089, 563.013 868.333 C 562.073 867.325, 553.225 856.825, 543.352 845 C 533.478 833.175, 507.866 802.575, 486.437 777 C 465.008 751.425, 446.130 728.895, 444.487 726.933 C 429.370 708.879, 410.057 685.865, 399.647 673.500 L 387.019 658.500 387.009 453.550 C 387.004 340.827, 387.377 249.027, 387.837 249.550 C 388.298 250.072, 397.875 261.525, 409.120 275 C 427.567 297.106, 449.228 322.986, 489.471 371 C 508.524 393.732, 532.440 422.281, 560.679 456 C 573.806 471.675, 597.381 499.800, 613.068 518.500 C 641.385 552.257, 656.848 570.708, 691.425 612 C 701.327 623.825, 716.194 641.548, 724.464 651.383 C 732.734 661.219, 741.061 671.232, 742.970 673.633 L 746.439 678 770.720 678 L 795 678 795 418 L 795 158 679.607 158 C 575.306 158, 564.156 158.152, 563.607 159.582 C 562.815 161.645, 562.815 207.355, 563.607 209.418 C 564.154 210.844, 572.971 211, 653.107 211 L 742 211 741.968 398.750 L 741.937 586.500 739.718 583.930 C 737.551 581.418, 726.734 568.508, 692.019 527 C 671.512 502.480, 656.357 484.403, 637.500 461.967 C 629.800 452.805, 617.131 437.702, 609.347 428.405 C 601.563 419.107, 577.286 390.125, 555.398 364 C 533.511 337.875, 512.054 312.225, 507.716 307 C 503.378 301.775, 496.575 293.675, 492.598 289 C 482.190 276.765, 460.425 250.796, 454 242.948 C 450.975 239.252, 433.719 218.627, 415.653 197.114 L 382.807 158 359.070 158 C 346.015 158, 335.033 158.300, 334.667 158.667 M 335 418.347 L 335 676.695 341.312 684.097 C 344.783 688.169, 354.772 700.050, 363.509 710.500 C 372.245 720.950, 384.129 735.125, 389.917 742 C 395.705 748.875, 406.279 761.475, 413.414 770 C 420.550 778.525, 433.188 793.600, 441.499 803.500 C 449.810 813.400, 473.191 841.300, 493.457 865.500 C 513.724 889.700, 532.790 912.425, 535.827 916 C 538.865 919.575, 546.509 928.704, 552.815 936.287 C 559.120 943.869, 564.624 949.944, 565.044 949.787 C 565.465 949.629, 573.164 940.698, 582.155 929.939 C 591.145 919.181, 605.675 901.856, 614.443 891.439 C 623.212 881.023, 636.238 865.525, 643.390 857 C 650.542 848.475, 664.292 832.096, 673.947 820.603 C 701.214 788.141, 701.362 787.954, 700.403 787.130 C 699.906 786.702, 695.225 782.804, 690 778.466 C 684.775 774.129, 676.585 767.259, 671.800 763.200 C 667.014 759.142, 662.617 756.119, 662.027 756.483 C 661.438 756.847, 654.487 764.875, 646.580 774.323 C 638.673 783.770, 623.328 802.075, 612.480 815 C 601.632 827.925, 586.637 845.813, 579.158 854.750 C 571.678 863.688, 565.276 871, 564.930 871 C 564.130 871, 559.281 865.373, 533.472 834.500 C 512.867 809.851, 498.911 793.189, 473.794 763.250 C 466.757 754.862, 455.247 741.138, 448.217 732.750 C 441.186 724.362, 430.505 711.650, 424.482 704.500 C 418.459 697.350, 407.336 684.109, 399.765 675.077 L 386 658.653 386.022 452.077 C 386.043 256.186, 386.134 245.611, 387.772 247.646 C 389.323 249.572, 400.363 262.722, 443.894 314.500 C 451.293 323.300, 462.761 337.025, 469.379 345 C 475.997 352.975, 481.671 359.725, 481.988 360 C 482.305 360.275, 490.425 369.904, 500.032 381.397 C 516.971 401.661, 544.736 434.805, 596.552 496.616 C 610.331 513.052, 640.639 549.225, 663.902 577 C 687.166 604.775, 707.175 628.625, 708.366 630 C 709.558 631.375, 716.347 639.475, 723.453 648 C 730.559 656.525, 739.036 666.538, 742.290 670.250 L 748.206 677 771.103 677 L 794 677 794 418.500 L 794 160 679.500 160 L 565 160 565 185 L 565 210 654.500 210 L 744 210 744 399.583 C 744 511.627, 743.632 589.030, 743.099 588.833 C 742.204 588.502, 735.417 580.496, 688.138 524 C 596.957 415.044, 601.629 420.617, 600.949 420 C 600.645 419.725, 593.657 411.400, 585.418 401.500 C 577.180 391.600, 565.707 377.875, 559.923 371 C 554.139 364.125, 542.257 349.950, 533.520 339.500 C 524.782 329.050, 515.512 318.025, 512.920 315 C 510.328 311.975, 499.973 299.600, 489.909 287.500 C 479.844 275.400, 466.863 259.875, 461.062 253 C 449.452 239.242, 434.847 221.826, 419.515 203.461 C 414.024 196.882, 403.522 184.412, 396.179 175.750 L 382.827 160 358.914 160 L 335 160 335 418.347" stroke="none" fill="#ed8c76" fill-rule="evenodd"/><path d="M 335 418.347 L 335 676.695 341.312 684.097 C 344.783 688.169, 354.772 700.050, 363.509 710.500 C 372.245 720.950, 384.129 735.125, 389.917 742 C 395.705 748.875, 406.279 761.475, 413.414 770 C 420.550 778.525, 433.188 793.600, 441.499 803.500 C 449.810 813.400, 473.191 841.300, 493.457 865.500 C 513.724 889.700, 532.790 912.425, 535.827 916 C 538.865 919.575, 546.509 928.704, 552.815 936.287 C 559.120 943.869, 564.624 949.944, 565.044 949.787 C 565.465 949.629, 573.164 940.698, 582.155 929.939 C 591.145 919.181, 605.675 901.856, 614.443 891.439 C 623.212 881.023, 636.238 865.525, 643.390 857 C 650.542 848.475, 664.292 832.096, 673.947 820.603 C 701.214 788.141, 701.362 787.954, 700.403 787.130 C 699.906 786.702, 695.225 782.804, 690 778.466 C 684.775 774.129, 676.585 767.259, 671.800 763.200 C 667.014 759.142, 662.617 756.119, 662.027 756.483 C 661.438 756.847, 654.487 764.875, 646.580 774.323 C 638.673 783.770, 623.328 802.075, 612.480 815 C 601.632 827.925, 586.637 845.813, 579.158 854.750 C 571.678 863.688, 565.276 871, 564.930 871 C 564.130 871, 559.281 865.373, 533.472 834.500 C 512.867 809.851, 498.911 793.189, 473.794 763.250 C 466.757 754.862, 455.247 741.138, 448.217 732.750 C 441.186 724.362, 430.505 711.650, 424.482 704.500 C 418.459 697.350, 407.336 684.109, 399.765 675.077 L 386 658.653 386.022 452.077 C 386.043 256.186, 386.134 245.611, 387.772 247.646 C 389.323 249.572, 400.363 262.722, 443.894 314.500 C 451.293 323.300, 462.761 337.025, 469.379 345 C 475.997 352.975, 481.671 359.725, 481.988 360 C 482.305 360.275, 490.425 369.904, 500.032 381.397 C 516.971 401.661, 544.736 434.805, 596.552 496.616 C 610.331 513.052, 640.639 549.225, 663.902 577 C 687.166 604.775, 707.175 628.625, 708.366 630 C 709.558 631.375, 716.347 639.475, 723.453 648 C 730.559 656.525, 739.036 666.538, 742.290 670.250 L 748.206 677 771.103 677 L 794 677 794 418.500 L 794 160 679.500 160 L 565 160 565 185 L 565 210 654.500 210 L 744 210 744 399.583 C 744 511.627, 743.632 589.030, 743.099 588.833 C 742.204 588.502, 735.417 580.496, 688.138 524 C 596.957 415.044, 601.629 420.617, 600.949 420 C 600.645 419.725, 593.657 411.400, 585.418 401.500 C 577.180 391.600, 565.707 377.875, 559.923 371 C 554.139 364.125, 542.257 349.950, 533.520 339.500 C 524.782 329.050, 515.512 318.025, 512.920 315 C 510.328 311.975, 499.973 299.600, 489.909 287.500 C 479.844 275.400, 466.863 259.875, 461.062 253 C 449.452 239.242, 434.847 221.826, 419.515 203.461 C 414.024 196.882, 403.522 184.412, 396.179 175.750 L 382.827 160 358.914 160 L 335 160 335 418.347" stroke="none" fill="#fb2c04" fill-rule="evenodd"/></svg>