<?xml version="1.0" standalone="no"?>
<!DOCTYPE svg PUBLIC "-//W3C//DTD SVG 20010904//EN"
 "http://www.w3.org/TR/2001/REC-SVG-20010904/DTD/svg10.dtd">
<svg version="1.0" xmlns="http://www.w3.org/2000/svg"
 width="1200.000000pt" height="1200.000000pt" viewBox="0 0 1200.000000 1200.000000"
 preserveAspectRatio="xMidYMid meet">

<g transform="translate(0.000000,1200.000000) scale(0.100000,-0.100000)"
fill="#000000" stroke="none">
<path d="M5580 11669 c-1211 -97 -2304 -543 -3245 -1325 -167 -139 -540 -512
-679 -679 -789 -949 -1230 -2038 -1326 -3269 -13 -166 -13 -626 0 -792 53
-686 211 -1315 481 -1923 212 -475 492 -921 845 -1346 139 -167 512 -540 679
-679 949 -789 2038 -1230 3269 -1326 71 -5 249 -10 396 -10 485 0 891 48 1345
159 864 212 1621 596 2320 1177 167 139 540 512 679 679 789 949 1230 2038
1326 3269 5 71 10 249 10 396 0 485 -48 891 -159 1345 -212 864 -596 1621
-1177 2320 -139 167 -512 540 -679 679 -949 789 -2038 1230 -3269 1326 -151
12 -664 11 -816 -1z m3047 -2699 c959 -47 1481 -342 1673 -944 59 -187 74
-309 75 -602 l0 -260 -28 -43 c-52 -79 -63 -81 -447 -80 -361 1 -377 3 -431
54 -48 45 -59 82 -59 197 0 135 -17 318 -35 393 -45 180 -154 313 -320 390
-49 23 -117 50 -150 58 -165 45 -489 66 -731 48 -342 -24 -522 -88 -654 -228
-68 -72 -111 -156 -141 -274 -30 -118 -39 -492 -15 -619 41 -220 167 -335 456
-418 58 -16 401 -91 762 -166 361 -75 722 -155 803 -177 588 -161 882 -422
999 -886 44 -174 51 -257 51 -603 0 -294 -2 -337 -23 -449 -58 -324 -192 -592
-397 -796 -272 -272 -646 -431 -1177 -501 -268 -35 -799 -29 -1111 11 -775
102 -1216 427 -1362 1003 -42 165 -55 294 -55 550 0 287 9 319 105 363 36 17
71 19 380 19 309 0 344 -2 380 -19 85 -39 104 -87 105 -271 1 -161 14 -303 35
-385 61 -234 222 -383 487 -450 172 -43 254 -50 573 -50 267 0 313 3 422 23
495 90 660 331 640 931 -8 239 -38 333 -137 431 -124 124 -225 155 -1020 320
-349 72 -698 146 -775 165 -743 179 -1059 486 -1140 1108 -21 164 -21 644 0
797 106 755 600 1204 1466 1330 246 36 485 45 796 30z m-6219 -109 c64 -29
115 -86 139 -155 17 -48 18 -184 18 -2701 0 -2575 -1 -2651 -19 -2699 -23 -60
-76 -120 -130 -149 -40 -21 -52 -22 -356 -22 -358 0 -355 -1 -437 87 -74 81
-68 -163 -68 2788 l0 2665 23 50 c39 85 103 136 195 155 23 5 164 8 312 7 261
-2 272 -3 323 -26z m3242 3 c84 -39 120 -104 120 -216 0 -72 -25 -137 -92
-236 -28 -42 -420 -578 -870 -1191 -541 -735 -815 -1117 -810 -1125 58 -73
1676 -2215 1704 -2255 83 -119 110 -276 69 -409 -68 -224 -297 -376 -539 -359
-132 9 -269 78 -350 175 -72 87 -1736 2416 -1778 2489 -79 138 -111 301 -85
438 24 131 65 193 881 1340 880 1237 878 1234 934 1279 106 86 156 96 496 93
256 -2 278 -3 320 -23z"/>
</g>
</svg>
